<?xml version="1.0" encoding="utf-8"?>
<!-- Generator: Adobe Illustrator 16.0.4, SVG Export Plug-In . SVG Version: 6.00 Build 0)  -->
<!DOCTYPE svg PUBLIC "-//W3C//DTD SVG 1.1//EN" "http://www.w3.org/Graphics/SVG/1.1/DTD/svg11.dtd">
<svg version="1.1" id="Layer_1" xmlns="http://www.w3.org/2000/svg" xmlns:xlink="http://www.w3.org/1999/xlink" x="0px" y="0px"
	 width="324px" height="54px" viewBox="0 0 4800 800" enable-background="new 0 0 4800 800" xml:space="preserve">
<path fill="#0074d9" d="M721.736,404.47c0,190.093-154.093,344.185-344.185,344.185S33.364,594.562,33.364,404.47
	c0-190.1,154.096-344.184,344.188-344.184S721.736,214.37,721.736,404.47z"/>
<polygon fill="#FFFFFF" points="777.423,382.932 485.797,382.932 651.01,314.51 634.526,274.714 469.344,343.135 675.529,136.941
	645.084,106.488 438.844,312.713 507.301,147.48 467.504,130.996 399.095,296.144 399.095,4.591 356.029,4.591 356.029,296.292
	287.553,130.996 247.764,147.48 316.174,312.635 110.016,106.488 79.562,136.941 285.834,343.197 120.516,274.722 104.023,314.51
	269.225,382.932 -22.327,382.932 -22.327,426.009 269.279,426.009 104.09,494.423 120.574,534.211 285.783,465.774 79.562,671.991
	110.016,702.444 316.201,496.251 247.784,661.437 287.568,677.929 356.029,512.664 356.029,804.349 399.095,804.349
	399.095,512.828 467.484,677.929 507.273,661.437 438.817,496.165 645.084,702.429 675.529,671.976 469.383,465.837
	634.483,534.227 650.967,494.431 485.746,426.009 777.423,426.009 "/>
<g>
	<path fill="#212121" d="M1048.678,328.119c0,31.422-9.258,55.672-27.785,72.781c-18.527,17.124-44.836,25.687-78.937,25.687
		h-21.347v93.265h-75.96V238.698h97.308c35.503,0,62.175,7.758,79.996,23.273C1039.764,277.479,1048.678,299.534,1048.678,328.119z
		 M920.609,364.666h13.843c11.406,0,20.484-3.211,27.21-9.625c6.734-6.406,10.094-15.25,10.094-26.531
		c0-18.977-10.508-28.46-31.531-28.46h-19.617V364.666z"/>
	<path fill="#212121" d="M1163.935,417.54v102.312h-75.956V238.698h92.112c76.406,0,114.608,27.695,114.608,83.077
		c0,32.562-15.895,57.766-47.687,75.578l81.917,122.498h-86.151l-59.613-102.312H1163.935z M1163.935,360.432h14.23
		c26.543,0,39.805-11.734,39.805-35.203c0-19.352-13.012-29.03-39.031-29.03h-15.004V360.432z"/>
	<path fill="#212121" d="M1610.681,378.893c0,47.304-11.605,83.272-34.805,107.882c-23.207,24.616-57.179,36.921-101.921,36.921
		c-44.105,0-77.917-12.375-101.44-37.116c-23.531-24.742-35.285-60.766-35.285-108.077c0-46.789,11.695-82.522,35.093-107.21
		c23.395-24.672,57.406-37.016,102.015-37.016c44.738,0,78.656,12.25,101.729,36.734
		C1599.142,295.495,1610.681,331.463,1610.681,378.893z M1417.226,378.893c0,54.351,18.91,81.538,56.729,81.538
		c19.23,0,33.488-6.609,42.789-19.812c9.292-13.203,13.941-33.781,13.941-61.726c0-28.078-4.707-48.812-14.132-62.211
		c-9.422-13.397-23.496-20.093-42.215-20.093C1436.264,296.589,1417.226,324.018,1417.226,378.893z"/>
	<path fill="#212121" d="M1734.527,519.852h-74.804V238.698h166.147v60.961h-91.343v53.647h84.23v60.968h-84.23V519.852z"/>
	<path fill="#212121" d="M1871.041,519.852V238.698h76.343v281.153H1871.041z"/>
	<path fill="#212121" d="M2006.853,519.852V238.698h75.956v219.803h108.269v61.351H2006.853z"/>
	<path fill="#212121" d="M2397.243,519.852h-166.92V238.698h166.92v60.961h-90.964v44.226h84.233v60.968h-84.233v53.078h90.964
		V519.852z"/>
	<path fill="#212121" d="M2548.784,519.852V238.698h75.957v219.803h108.264v61.351H2548.784z"/>
	<path fill="#212121" d="M2960.468,519.852l-13.852-52.694h-91.347l-14.229,52.694h-83.453l91.723-282.31h101.35l92.875,282.31
		H2960.468z M2930.847,404.853l-12.112-46.155c-2.82-10.25-6.25-23.523-10.289-39.805c-4.039-16.272-6.699-27.944-7.984-34.999
		c-1.152,6.539-3.426,17.305-6.82,32.304c-3.402,15-10.934,44.555-22.598,88.655H2930.847z"/>
	<path fill="#212121" d="M3265.289,434.47c0,17.43-4.43,32.914-13.273,46.445c-8.843,13.516-21.601,24.03-38.265,31.53
		c-16.672,7.5-36.219,11.25-58.656,11.25c-18.711,0-34.413-1.312-47.116-3.938c-12.688-2.633-25.898-7.219-39.609-13.758v-67.687
		c14.484,7.438,29.547,13.234,45.195,17.398c15.632,4.172,29.991,6.25,43.069,6.25c11.281,0,19.547-1.953,24.805-5.859
		s7.891-8.945,7.891-15.094c0-3.852-1.055-7.219-3.18-10.109c-2.102-2.875-5.508-5.797-10.188-8.734
		c-4.68-2.961-17.148-8.984-37.398-18.078c-18.343-8.343-32.093-16.405-41.249-24.233c-9.172-7.82-15.961-16.797-20.391-26.922
		c-4.422-10.125-6.625-22.117-6.625-35.969c0-25.89,9.414-46.077,28.266-60.577c18.844-14.484,44.733-21.719,77.687-21.719
		c29.102,0,58.781,6.734,89.038,20.188l-23.272,58.655c-26.281-12.046-48.969-18.077-68.078-18.077
		c-9.867,0-17.047,1.734-21.531,5.188c-4.492,3.461-6.734,7.757-6.734,12.89c0,5.516,2.852,10.445,8.555,14.805
		s21.188,12.305,46.445,23.844c24.227,10.898,41.062,22.602,50.484,35.102C3260.57,399.752,3265.289,415.493,3265.289,434.47z"/>
	<path fill="#212121" d="M3477.553,519.852h-166.912V238.698h166.912v60.961h-90.952v44.226h84.226v60.968h-84.226v53.078h90.952
		V519.852z"/>
	<path fill="#212121" d="M3605.896,417.54v102.312h-75.961V238.698h92.117c76.405,0,114.607,27.695,114.607,83.077
		c0,32.562-15.897,57.766-47.694,75.578l81.929,122.498h-86.147L3625.13,417.54H3605.896z M3605.896,360.432h14.227
		c26.539,0,39.812-11.734,39.812-35.203c0-19.352-13.015-29.03-39.038-29.03h-15V360.432z"/>
	<path fill="#212121" d="M3871.939,462.353l2.688,4.422c-12.43,48.843-23.718,84.804-33.843,107.874h-53.664
		c3.727-17.688,7.477-37.531,11.25-59.516c3.789-21.983,6.383-39.577,7.805-52.78H3871.939z"/>
	<path fill="#212121" d="M4030.587,519.852V238.698h75.96v219.803h108.265v61.351H4030.587z"/>
	<path fill="#212121" d="M4254.061,519.852V238.698h75.961v219.803h108.264v61.351H4254.061z"/>
	<path fill="#212121" d="M4601.706,296.964c-18.078,0-32.18,7.406-42.312,22.218c-10.133,14.805-15.18,35.219-15.18,61.242
		c0,54.101,20.57,81.163,61.719,81.163c12.438,0,24.492-1.734,36.155-5.195c11.656-3.461,23.391-7.633,35.195-12.5v64.226
		c-23.461,10.391-50.007,15.578-79.616,15.578c-42.43,0-74.968-12.305-97.601-36.921c-22.625-24.609-33.938-60.188-33.938-106.733
		c0-29.102,5.477-54.672,16.445-76.726c10.961-22.055,26.727-39,47.305-50.867c20.569-11.859,44.772-17.781,72.601-17.781
		c30.375,0,59.421,6.594,87.101,19.797l-23.258,59.812c-10.391-4.875-20.773-8.969-31.155-12.304
		C4624.776,298.636,4613.628,296.964,4601.706,296.964z"/>
</g>
<rect x="740.873" y="382.932" fill="#FFFFFF" width="135.776" height="43.077"/>
</svg>
