<?xml version="1.0" encoding="utf-8"?>
<!-- Generator: Adobe Illustrator 16.0.4, SVG Export Plug-In . SVG Version: 6.00 Build 0)  -->
<!DOCTYPE svg PUBLIC "-//W3C//DTD SVG 1.1//EN" "http://www.w3.org/Graphics/SVG/1.1/DTD/svg11.dtd">
<svg version="1.1" id="Layer_1" xmlns="http://www.w3.org/2000/svg" xmlns:xlink="http://www.w3.org/1999/xlink" x="0px" y="0px"
	 width="623.999px" height="104px" viewBox="0 0 623.999 104" enable-background="new 0 0 623.999 104" xml:space="preserve">
<g>
	<path d="M368.476-1647.645c-0.002-13.545-5.752-25.741-14.932-34.302l-11.504,37.114l-22.047,4.723l-0.012-0.012l-5-5.204
		l-11.632-12.105l12.007-36.695c-22.965,3.042-40.689,22.686-40.689,46.482c0,16.385,8.407,30.802,21.141,39.188l-0.001,42.883
		v10.902v63.765v16.623c0.001,11.643,8.224,21.354,19.175,23.662c1.615,0.342,3.283,0.525,5,0.527c0.004,0,0.008,0.002,0.012,0
		c13.361,0,24.189-10.828,24.189-24.188v-16.625v-63.765v-10.902l-0.002-40.975C358.661-1614.533,368.474-1629.942,368.476-1647.645
		z"/>
</g>
<g>
	<g>
		<path d="M384.661-1890.048c-43.379,0-78.67,35.292-78.67,78.671c0,43.38,35.291,78.673,78.67,78.673
			c43.38,0,78.672-35.293,78.672-78.673C463.333-1854.757,428.041-1890.048,384.661-1890.048z M384.661-1744.664
			c-36.785,0-66.711-29.928-66.711-66.714c0-36.786,29.926-66.713,66.711-66.713c36.787,0,66.715,29.927,66.715,66.713
			C451.376-1774.591,421.448-1744.664,384.661-1744.664z"/>
	</g>
	<g>
		<path d="M384.661-1865.384c-2.474,0-4.979,1.666-4.979,4.849v5.774v38.405h-33.117h-4.293c-3.184,0-4.849,2.505-4.849,4.979
			s1.665,4.979,4.849,4.979h42.389c2.699,0,4.98-2.28,4.98-4.979v-49.158C389.642-1863.718,387.136-1865.384,384.661-1865.384z"/>
	</g>
	<g>
		<path d="M373.492-1894.621c-0.124-1.591-0.526-3.188-1.253-4.714l-0.48-1.008c-3.189-6.687-11.195-9.522-17.879-6.332
			l-26.844,12.804c-6.686,3.188-9.521,11.193-6.331,17.879l0.48,1.009c0.729,1.525,1.716,2.84,2.876,3.938
			c6.148-6.743,13.663-12.446,22.41-16.618C355.218-1891.834,364.38-1894.086,373.492-1894.621z"/>
	</g>
	<g>
		<path d="M396.038-1894.621c0.126-1.591,0.527-3.188,1.254-4.714l0.48-1.008c3.189-6.686,11.196-9.521,17.879-6.332l26.844,12.803
			c6.686,3.189,9.521,11.194,6.332,17.879l-0.48,1.009c-0.729,1.526-1.717,2.84-2.877,3.939
			c-6.148-6.744-13.662-12.446-22.409-16.618C414.313-1891.835,405.151-1894.087,396.038-1894.621z"/>
	</g>
	<g>
		<path d="M339.436-1749.406c-2.931,5.072-4.134,10.523-3.14,14.229c0.477,1.779,1.449,3.135,2.812,3.92
			c0.852,0.492,1.813,0.741,2.86,0.741c0.001,0,0.001,0,0.001,0c4.102,0,9.201-4.06,12.689-10.101l1-1.732l-15.222-8.787
			L339.436-1749.406z"/>
		<path d="M433.38-1739.048c-0.221-3.209-1.445-6.887-3.447-10.356l-1-1.733l-15.226,8.792l1,1.731
			c3.487,6.04,8.587,10.099,12.688,10.1c0,0,0.001,0,0.002,0c1.047,0,2.01-0.25,2.859-0.741
			C432.526-1732.565,433.636-1735.332,433.38-1739.048z"/>
	</g>
</g>
<g>
	<g>
		<polygon fill="none" points="423.718,-1602.411 400.259,-1578.952 423.718,-1578.952 		"/>
		<path d="M494.188-1476.839h-99.586v-94.113h37.116v-37.116h62.47v0.206l8-8v-0.206h-76.126l-39.46,39.459v107.771h115.586v-66.704
			l-8,8.001V-1476.839z M423.718-1602.411v23.459h-23.459L423.718-1602.411z"/>
	</g>
	<g>
		<polygon fill="none" points="447.933,-1544.294 447.933,-1531.542 447.933,-1531.542 456.2,-1529.668 458.073,-1521.401 
			458.074,-1521.4 470.825,-1521.4 476.659,-1527.234 453.767,-1550.128 		"/>
		<path fill="none" d="M511.644-1603.891l-44.432,44.432c-1.031,1.031-1.031,2.702,0,3.732c1.03,1.03,2.702,1.031,3.732,0
			l44.432-44.431c1.031-1.031,1.029-2.703,0-3.733C514.345-1604.921,512.673-1604.921,511.644-1603.891z"/>
		<path d="M561.989-1618.22l-17.238-17.236c-4.686-4.687-12.283-4.687-16.971,0l-8.617,8.617l34.207,34.207l8.619-8.618
			C566.675-1605.936,566.675-1613.534,561.989-1618.22z"/>
		<path d="M475.364-1583.039l-27.255,27.254l-8.177,8.178v34.207h34.207l8.177-8.178l27.255-27.255l40.094-40.094l-34.207-34.207
			L475.364-1583.039z M470.825-1521.4h-12.751l-0.001-0.001l-1.873-8.267l-8.268-1.874l0,0v-12.752l5.834-5.834l22.893,22.894
			L470.825-1521.4z M515.376-1600.157l-44.432,44.431c-1.03,1.031-2.702,1.03-3.732,0c-1.031-1.03-1.031-2.701,0-3.732
			l44.432-44.432c1.029-1.03,2.701-1.03,3.732,0C516.405-1602.86,516.407-1601.188,515.376-1600.157z"/>
	</g>
</g>
<g>
	<g>
		<circle fill="none" cx="113.746" cy="-1819.25" r="22.078"/>
		<path d="M149.384-1827.102c-0.933-4.258-2.612-8.234-4.89-11.792l4.014-6.575l-4.271-4.272l-4.273-4.272l-6.574,4.013
			c-3.558-2.277-7.535-3.954-11.791-4.888l-1.811-7.483h-6.041h-6.043l-1.811,7.483c-4.256,0.934-8.232,2.611-11.79,4.888
			l-6.575-4.015l-4.273,4.273l-4.272,4.272l4.015,6.576c-2.277,3.558-3.955,7.533-4.888,11.79l-7.485,1.811v6.042v6.042l7.485,1.811
			c0.935,4.257,2.61,8.232,4.888,11.79l-4.016,6.576l4.273,4.273l4.271,4.272l6.578-4.015c3.558,2.277,7.533,3.955,11.789,4.888
			l1.811,7.483h6.043h6.041l1.811-7.483c4.256-0.933,8.233-2.611,11.791-4.888l6.576,4.013l4.271-4.272l4.272-4.272l-4.014-6.575
			c2.276-3.558,3.954-7.534,4.889-11.791l7.481-1.811v-6.042v-6.042L149.384-1827.102z M113.746-1797.172
			c-12.194,0-22.078-9.884-22.078-22.078s9.884-22.078,22.078-22.078c12.193,0,22.078,9.884,22.078,22.078
			S125.939-1797.172,113.746-1797.172z"/>
	</g>
	<g>
		<circle fill="none" cx="223.696" cy="-1773.958" r="22.078"/>
		<path d="M259.335-1781.81c-0.934-4.257-2.611-8.234-4.889-11.792l4.012-6.574l-4.271-4.272l-4.272-4.272l-6.573,4.013
			c-3.56-2.277-7.535-3.955-11.793-4.888l-1.809-7.483h-6.042h-6.043l-1.81,7.483c-4.258,0.934-8.234,2.611-11.791,4.888
			l-6.576-4.015l-4.272,4.272l-4.272,4.273l4.014,6.575c-2.276,3.558-3.954,7.534-4.887,11.791l-7.484,1.81v6.042v6.042l7.484,1.811
			c0.934,4.257,2.61,8.232,4.887,11.79l-4.016,6.576l4.274,4.273l4.271,4.272l6.578-4.015c3.559,2.277,7.533,3.955,11.791,4.889
			l1.81,7.483h6.043h6.042l1.809-7.483c4.258-0.934,8.233-2.611,11.791-4.889l6.576,4.014l4.272-4.272l4.272-4.272l-4.014-6.575
			c2.277-3.558,3.954-7.534,4.889-11.791l7.481-1.81v-6.042V-1780L259.335-1781.81z M223.697-1751.88
			c-12.194,0-22.079-9.885-22.079-22.078s9.885-22.078,22.079-22.078c12.192,0,22.077,9.884,22.077,22.078
			S235.89-1751.88,223.697-1751.88z"/>
	</g>
	<g>
		<circle fill="none" cx="146.022" cy="-1742.211" r="22.078"/>
		<path d="M175.942-1763.104c-2.492-3.576-5.563-6.608-9.03-9.023l1.192-7.609l-5.582-2.312l-5.582-2.312l-4.538,6.225
			c-4.158-0.742-8.475-0.771-12.765-0.004l-4.535-6.221l-5.583,2.312l-5.582,2.312l1.191,7.606
			c-3.575,2.492-6.607,5.563-9.022,9.028l-7.611-1.193l-2.312,5.583l-2.312,5.582l6.225,4.539c-0.742,4.158-0.77,8.473-0.004,12.764
			l-6.221,4.536l2.312,5.583l2.312,5.582l7.607-1.19c2.492,3.575,5.562,6.606,9.028,9.021l-1.194,7.612l5.584,2.312l5.582,2.313
			l4.539-6.227c4.158,0.743,8.475,0.771,12.764,0.004l4.537,6.221l5.581-2.312l5.583-2.312l-1.191-7.606
			c3.576-2.492,6.607-5.562,9.021-9.028l7.612,1.191l2.312-5.582l2.312-5.582l-6.224-4.539c0.743-4.158,0.771-8.473,0.003-12.764
			l6.221-4.536l-2.312-5.582l-2.312-5.582L175.942-1763.104z M154.471-1721.813c-11.266,4.666-24.18-0.684-28.846-11.949
			c-4.666-11.265,0.684-24.18,11.948-28.846s24.179,0.683,28.846,11.948C171.085-1739.395,165.736-1726.48,154.471-1721.813z"/>
	</g>
</g>
<g>
	<g opacity="0.08">
		<path d="M62.448,78.171H32.011V49.406h11.344V38.062h19.094v0.063l2.445-2.446v-0.062H41.626L29.565,47.677v32.939h35.328V60.229
			l-2.445,2.445V78.171z"/>
		<path d="M83.171,34.959l-5.269-5.269c-1.432-1.433-3.755-1.433-5.187,0l-2.634,2.635L80.537,42.78l2.634-2.635
			C84.604,38.714,84.604,36.391,83.171,34.959z"/>
		<path d="M56.695,45.712l-8.331,8.329l-2.499,2.5v10.455H56.32l2.5-2.5l8.33-8.33l12.254-12.254L68.949,33.457L56.695,45.712z
			 M55.308,64.551H51.41l0,0l-0.572-2.526l-2.527-0.573v-3.897l1.783-1.783l6.997,6.998L55.308,64.551z M68.925,40.479L55.344,54.06
			c-0.314,0.315-0.825,0.314-1.141,0c-0.315-0.315-0.315-0.825,0-1.141l13.58-13.58c0.314-0.315,0.826-0.315,1.142,0
			C69.239,39.653,69.239,40.164,68.925,40.479z"/>
	</g>
	<g>
		<path fill="#FFFFFF" d="M61.668,74.271H31.23V45.506h11.344V34.162h19.094v0.062l2.445-2.445v-0.062H40.846L28.785,43.777v32.938
			h35.328V56.328l-2.445,2.446V74.271z"/>
		<path fill="#FFFFFF" d="M82.391,31.06l-5.268-5.269c-1.433-1.433-3.755-1.433-5.188,0l-2.634,2.634L79.757,38.88l2.634-2.635
			C83.823,34.813,83.823,32.491,82.391,31.06z"/>
		<path fill="#FFFFFF" d="M55.915,41.812l-8.33,8.33l-2.5,2.499l0.001,10.456H55.54l2.5-2.5l8.33-8.33l12.255-12.255L68.17,29.557
			L55.915,41.812z M54.527,60.651H50.63V60.65l-0.572-2.526l-2.527-0.573v-3.896l1.783-1.783l6.997,6.997L54.527,60.651z
			 M68.145,36.58l-13.58,13.58c-0.315,0.314-0.826,0.314-1.142,0c-0.315-0.315-0.315-0.826,0-1.142l13.58-13.58
			c0.315-0.314,0.826-0.314,1.142,0C68.459,35.753,68.459,36.265,68.145,36.58z"/>
	</g>
</g>
<g>
	<g opacity="0.08">
		<path d="M137.231,57.695h1.937h1.935l0.58-2.397c1.364-0.299,2.639-0.837,3.778-1.566l2.106,1.286l1.368-1.369l1.369-1.368
			l-1.285-2.106c0.729-1.14,1.267-2.413,1.565-3.777l2.396-0.58v-1.936v-1.937l-2.396-0.579c-0.298-1.365-0.837-2.639-1.566-3.777
			l1.286-2.107l-1.369-1.368l-1.368-1.368l-2.106,1.285c-1.14-0.729-2.414-1.267-3.778-1.565l-0.58-2.397h-1.935h-1.937l-0.58,2.397
			c-1.363,0.299-2.637,0.837-3.776,1.565l-2.107-1.286l-1.369,1.369l-1.368,1.368l1.286,2.107c-0.729,1.14-1.268,2.412-1.565,3.777
			l-2.398,0.579v1.937v1.936l2.398,0.58c0.299,1.364,0.836,2.637,1.565,3.777l-1.286,2.106l1.368,1.369l1.369,1.368l2.107-1.286
			c1.14,0.729,2.413,1.268,3.776,1.566L137.231,57.695z M132.094,43.881c0-3.906,3.168-7.073,7.074-7.073s7.073,3.167,7.073,7.073
			s-3.167,7.073-7.073,7.073S132.094,47.787,132.094,43.881z"/>
		<path d="M185.811,55.875c-0.3-1.363-0.837-2.638-1.566-3.777l1.285-2.106l-1.368-1.369l-1.369-1.368l-2.105,1.286
			c-1.141-0.729-2.415-1.267-3.778-1.566l-0.579-2.397h-1.937h-1.936l-0.58,2.397c-1.363,0.3-2.638,0.837-3.777,1.566l-2.106-1.287
			l-1.369,1.369l-1.369,1.369l1.286,2.106c-0.729,1.141-1.267,2.414-1.565,3.777l-2.397,0.58v1.936v1.936l2.397,0.581
			c0.3,1.362,0.837,2.637,1.565,3.776l-1.286,2.106l1.369,1.369l1.368,1.369l2.107-1.286c1.141,0.729,2.414,1.267,3.777,1.566
			l0.58,2.396h1.936h1.937l0.579-2.396c1.363-0.3,2.638-0.837,3.777-1.566l2.106,1.286l1.369-1.369l1.369-1.369l-1.286-2.105
			c0.729-1.141,1.267-2.415,1.566-3.777l2.396-0.581v-1.936v-1.936L185.811,55.875z M174.393,65.464
			c-3.906,0-7.073-3.167-7.073-7.073s3.167-7.072,7.073-7.072s7.073,3.166,7.073,7.072S178.299,65.464,174.393,65.464z"/>
		<path d="M162.271,63.274l-0.741-1.788l-2.437,0.382c-0.799-1.146-1.782-2.117-2.894-2.891l0.383-2.438l-1.788-0.741l-1.789-0.741
			l-1.453,1.994c-1.333-0.237-2.716-0.247-4.09-0.001l-1.453-1.993l-1.788,0.74l-1.789,0.741l0.382,2.438
			c-1.146,0.798-2.117,1.782-2.891,2.892l-2.438-0.382l-0.741,1.788l-0.74,1.788l1.994,1.455c-0.238,1.332-0.247,2.714-0.001,4.089
			l-1.993,1.453l0.74,1.789l0.741,1.788l2.437-0.382c0.799,1.146,1.782,2.116,2.893,2.891l-0.382,2.439l1.789,0.739l1.788,0.742
			l1.454-1.995c1.332,0.237,2.715,0.246,4.089,0.001l1.454,1.993l1.788-0.741l1.788-0.74l-0.382-2.438
			c1.146-0.798,2.117-1.781,2.891-2.893l2.438,0.382l0.741-1.788l0.74-1.788l-1.994-1.454c0.238-1.332,0.247-2.715,0.001-4.089
			l1.993-1.454L162.271,63.274z M152.215,75.097c-3.609,1.494-7.746-0.22-9.241-3.829c-1.495-3.608,0.219-7.746,3.827-9.241
			c3.609-1.494,7.747,0.22,9.242,3.828C157.538,69.464,155.824,73.602,152.215,75.097z"/>
	</g>
	<g>
		<path fill="#FFFFFF" d="M136.451,53.795h1.937h1.935l0.58-2.397c1.364-0.299,2.639-0.836,3.778-1.565l2.106,1.285l1.369-1.368
			l1.369-1.369l-1.286-2.106c0.729-1.139,1.267-2.413,1.565-3.777l2.397-0.58V39.98v-1.936l-2.397-0.58
			c-0.298-1.364-0.836-2.639-1.566-3.777l1.287-2.106l-1.369-1.369l-1.369-1.368l-2.106,1.285c-1.14-0.729-2.414-1.266-3.778-1.565
			l-0.58-2.397h-1.935h-1.937l-0.58,2.397c-1.363,0.3-2.637,0.837-3.776,1.565l-2.106-1.286l-1.369,1.369l-1.369,1.369l1.286,2.106
			c-0.729,1.14-1.267,2.413-1.565,3.777l-2.398,0.58v1.936v1.936l2.398,0.58c0.299,1.364,0.836,2.638,1.565,3.777l-1.286,2.106
			l1.369,1.369l1.368,1.369l2.107-1.286c1.14,0.729,2.413,1.267,3.776,1.565L136.451,53.795z M131.314,39.98
			c0-3.906,3.167-7.073,7.073-7.073s7.073,3.167,7.073,7.073c0,3.907-3.167,7.073-7.073,7.073S131.314,43.888,131.314,39.98z"/>
		<path fill="#FFFFFF" d="M185.03,51.976c-0.299-1.364-0.837-2.638-1.566-3.778l1.285-2.105l-1.368-1.369l-1.368-1.369l-2.106,1.286
			c-1.141-0.729-2.414-1.267-3.778-1.566l-0.579-2.397h-1.937h-1.935l-0.58,2.397c-1.364,0.3-2.639,0.837-3.777,1.566l-2.107-1.286
			l-1.369,1.369l-1.368,1.368l1.286,2.106c-0.729,1.141-1.268,2.414-1.566,3.778l-2.397,0.58v1.935v1.937l2.397,0.58
			c0.3,1.363,0.837,2.637,1.566,3.776l-1.287,2.107l1.369,1.369l1.368,1.369l2.108-1.287c1.14,0.729,2.413,1.267,3.777,1.566
			l0.58,2.397h1.935h1.937l0.579-2.397c1.364-0.3,2.638-0.837,3.778-1.566l2.106,1.286l1.368-1.368l1.369-1.369l-1.286-2.106
			c0.729-1.141,1.267-2.414,1.566-3.777l2.396-0.58V54.49v-1.935L185.03,51.976z M173.612,61.563c-3.905,0-7.073-3.167-7.073-7.073
			s3.168-7.072,7.073-7.072c3.907,0,7.073,3.166,7.073,7.072S177.52,61.563,173.612,61.563z"/>
		<path fill="#FFFFFF" d="M161.491,59.375l-0.741-1.788l-2.436,0.381c-0.8-1.146-1.783-2.116-2.894-2.891l0.382-2.438l-1.788-0.74
			l-1.788-0.741l-1.454,1.994c-1.333-0.238-2.716-0.247-4.09-0.002l-1.453-1.993l-1.788,0.741l-1.789,0.74l0.382,2.438
			c-1.146,0.799-2.116,1.782-2.891,2.892l-2.438-0.381l-0.74,1.788l-0.74,1.788l1.993,1.454c-0.237,1.332-0.246,2.715-0.001,4.09
			l-1.992,1.452l0.74,1.789l0.74,1.789l2.438-0.382c0.798,1.145,1.781,2.116,2.893,2.89l-0.383,2.439l1.789,0.74l1.788,0.741
			l1.454-1.995c1.332,0.238,2.715,0.247,4.089,0.002l1.454,1.993l1.788-0.741l1.788-0.741l-0.381-2.437
			c1.146-0.798,2.116-1.782,2.89-2.893l2.438,0.382l0.741-1.789l0.74-1.788l-1.994-1.454c0.238-1.332,0.247-2.714,0.002-4.089
			l1.992-1.453L161.491,59.375z M151.435,71.196c-3.608,1.495-7.746-0.219-9.241-3.828c-1.495-3.608,0.219-7.747,3.828-9.241
			c3.609-1.495,7.746,0.219,9.241,3.828C156.758,65.563,155.044,69.701,151.435,71.196z"/>
	</g>
</g>
<g>
	<g opacity="0.08">
		<path d="M551.722,74.465c0,0,7.177-3.065,7.177-12.935c0-9.868,19.289-8.074,13.308,6.467
			C566.226,82.539,552.917,74.465,551.722,74.465z"/>
		<path d="M593.837,41.064c0-3.294-2.669-5.964-5.965-5.965c-1.647,0-3.139,0.669-4.218,1.749l0,0l-14.811,14.809
			c2.044,0.566,3.976,1.645,5.582,3.25c1.447,1.448,2.459,3.16,3.063,4.979l14.601-14.603l0,0
			C593.17,44.204,593.837,42.713,593.837,41.064z"/>
	</g>
	<g>
		<path fill="#FFFFFF" d="M550.941,70.564c0,0,7.177-3.065,7.177-12.934s19.29-8.075,13.308,6.466
			C565.445,78.639,552.137,70.564,550.941,70.564z"/>
		<path fill="#FFFFFF" d="M593.057,37.165c0-3.294-2.669-5.964-5.965-5.965c-1.647,0-3.139,0.668-4.218,1.749l0,0l-14.811,14.808
			c2.045,0.566,3.976,1.646,5.582,3.25c1.448,1.448,2.459,3.161,3.063,4.98l14.602-14.604l0,0
			C592.39,40.305,593.057,38.813,593.057,37.165z"/>
	</g>
</g>
<g>
	<g opacity="0.08">
		<polygon points="496.408,42.219 489.29,35.1 461.928,62.462 448.27,48.804 441.149,55.922 454.809,69.581 461.928,76.699 
			461.928,76.7 469.047,69.581 469.046,69.581 		"/>
	</g>
	<g>
		<polygon fill="#FFFFFF" points="495.628,38.318 488.51,31.2 461.147,58.562 447.489,44.903 440.369,52.021 454.028,65.681 
			461.147,72.8 461.148,72.8 468.267,65.682 468.267,65.681 		"/>
	</g>
</g>
<g>
	<g opacity="0.08">
		<circle cx="260.827" cy="63.062" r="0.93"/>
		<circle cx="260.827" cy="67.711" r="0.93"/>
		<circle cx="260.827" cy="72.358" r="0.93"/>
		<path d="M268.786,50.302c4.536-4.536,5.502-16.216,5.502-16.216h1.905V29.9h-30.732v4.186h1.904c0,0,0.967,11.68,5.503,16.216
			s5.501,5.115,2.315,8.301c-3.185,3.186-7.818,9.941-7.818,19.111h-1.904V81.9h30.732v-4.187h-1.905
			c0-9.17-4.633-15.926-7.817-19.111C263.285,55.417,264.25,54.838,268.786,50.302z M270.547,77.714h-5.837
			c0,0-1.841-1.85-3.883-1.85s-3.883,1.85-3.883,1.85h-5.832c0-11.489,9.715-19.013,9.715-19.013S270.547,66.296,270.547,77.714z
			 M252.637,41.89c-0.914-2.321-1.524-4.942-1.524-7.804h19.435c0,2.866-0.604,5.485-1.512,7.804H252.637z"/>
	</g>
	<g>
		<circle fill="#FFFFFF" cx="260.047" cy="59.162" r="0.93"/>
		<circle fill="#FFFFFF" cx="260.047" cy="63.811" r="0.93"/>
		<circle fill="#FFFFFF" cx="260.047" cy="68.458" r="0.93"/>
		<g>
			<path fill="#FFFFFF" d="M268.006,46.401c4.537-4.536,5.503-16.215,5.503-16.215h1.904V26h-30.731v4.187h1.904
				c0,0,0.966,11.679,5.502,16.215s5.501,5.115,2.316,8.301c-3.186,3.186-7.818,9.941-7.818,19.111h-1.904V78h30.731v-4.187h-1.904
				c0-9.17-4.634-15.926-7.818-19.111C262.505,51.517,263.47,50.938,268.006,46.401z M269.768,73.813h-5.838
				c0,0-1.841-1.85-3.883-1.85s-3.883,1.85-3.883,1.85h-5.832c0-11.488,9.715-19.012,9.715-19.012S269.768,62.396,269.768,73.813z
				 M251.856,37.989c-0.914-2.321-1.524-4.942-1.524-7.803h19.436c0,2.866-0.605,5.485-1.513,7.803H251.856z"/>
		</g>
	</g>
</g>
<g>
	<g opacity="0.08">
		<path d="M363.531,42.807l-0.416,0.194l-2.328,1.085c-0.107-0.161-0.214-0.321-0.32-0.48l-0.104-0.155
			c-0.328-0.493-0.64-0.928-0.955-1.332c-2.68-3.438-5.699-5.951-8.975-7.468c-2.08-0.962-7.295-2.958-10.804-0.688
			c-1.779,1.148-2.683,3.105-2.359,5.107c0.314,1.947,1.716,3.424,3.749,3.95c2.149,0.556,4.122-0.217,6.03-0.964
			c1.648-0.646,3.205-1.256,4.865-1.074c1.103,0.121,2.163,0.402,3.153,0.835c1.077,0.473,2.044,1.144,2.872,1.995
			c0.35,0.36,0.673,0.746,0.976,1.147l-1.741,0.812l-5.57,8.86l13.354,28.641l22.295-10.397L373.9,44.235L363.531,42.807z
			 M361.201,46.644v-0.002c-0.016-0.021-0.031-0.042-0.045-0.063c0.001-0.002,0.004-0.003,0.006-0.004
			C361.175,46.597,361.188,46.62,361.201,46.644z M360.443,47.239l-0.164,0.215c0.047-0.079,0.098-0.155,0.153-0.229
			C360.436,47.229,360.438,47.234,360.443,47.239z M362.334,46.233l-0.224,0.043c-0.005-0.007-0.011-0.015-0.016-0.022
			C362.175,46.243,362.254,46.236,362.334,46.233z M358.632,43.138c-0.915-0.94-1.983-1.682-3.177-2.205
			c-1.079-0.473-2.234-0.779-3.436-0.91c-1.896-0.208-3.637,0.475-5.321,1.134c-1.847,0.724-3.59,1.406-5.438,0.929
			c-1.65-0.427-2.786-1.611-3.038-3.17c-0.261-1.617,0.479-3.205,1.932-4.143c0.194-0.126,0.395-0.236,0.602-0.333
			c3.098-1.444,7.459,0.248,9.271,1.087c3.136,1.451,6.035,3.869,8.62,7.186c0.3,0.385,0.599,0.801,0.913,1.272l0.104,0.156
			c0.078,0.119,0.159,0.239,0.238,0.358l-0.094,0.044C359.448,44.056,359.062,43.58,358.632,43.138z M363.465,50.964
			c-1.241,0.579-2.719,0.042-3.298-1.201c-0.282-0.606-0.298-1.27-0.096-1.856c0.254,0.167,0.521,0.229,0.76,0.178
			c0.056-0.012,0.109-0.03,0.16-0.054c0.156-0.072,0.286-0.198,0.376-0.365c0.177-0.328,0.082-0.621-0.032-0.823
			c0.247,0.333,0.603,0.614,1.081,0.418c0.377-0.154,0.46-0.593,0.412-0.992c0.777,0.131,1.479,0.63,1.838,1.397
			C365.245,48.908,364.707,50.385,363.465,50.964z"/>
	</g>
	<g>
		<path fill="#FFFFFF" d="M362.752,38.906l-0.417,0.194l-2.328,1.086c-0.106-0.161-0.214-0.322-0.32-0.48l-0.104-0.156
			c-0.327-0.492-0.64-0.928-0.954-1.332c-2.68-3.438-5.699-5.95-8.976-7.467c-2.079-0.963-7.295-2.959-10.803-0.689
			c-1.78,1.149-2.684,3.106-2.36,5.107c0.314,1.947,1.717,3.424,3.749,3.951c2.149,0.556,4.123-0.218,6.03-0.965
			c1.648-0.646,3.205-1.256,4.865-1.074c1.103,0.122,2.164,0.402,3.153,0.836c1.077,0.472,2.045,1.144,2.872,1.994
			c0.35,0.36,0.673,0.747,0.976,1.148l-1.741,0.812l-5.57,8.861l13.354,28.64l22.296-10.396l-13.354-28.64L362.752,38.906z
			 M360.422,42.743L360.422,42.743c-0.017-0.022-0.031-0.044-0.046-0.065c0.001-0.001,0.004-0.002,0.006-0.004
			C360.396,42.697,360.408,42.72,360.422,42.743z M359.663,43.339l-0.164,0.216c0.047-0.079,0.098-0.156,0.153-0.229
			C359.656,43.33,359.659,43.335,359.663,43.339z M361.554,42.334l-0.224,0.042c-0.005-0.007-0.01-0.015-0.016-0.022
			C361.395,42.344,361.475,42.336,361.554,42.334z M357.852,39.238c-0.914-0.94-1.983-1.683-3.177-2.205
			c-1.079-0.474-2.234-0.779-3.436-0.911c-1.896-0.207-3.637,0.475-5.321,1.135c-1.846,0.723-3.589,1.405-5.438,0.928
			c-1.65-0.427-2.786-1.611-3.037-3.17c-0.262-1.617,0.478-3.204,1.931-4.143c0.194-0.126,0.395-0.236,0.602-0.333
			c3.098-1.444,7.459,0.248,9.272,1.088c3.135,1.451,6.035,3.869,8.62,7.185c0.299,0.385,0.598,0.801,0.912,1.273l0.104,0.156
			c0.078,0.118,0.158,0.238,0.238,0.357l-0.095,0.044C358.669,40.156,358.282,39.681,357.852,39.238z M362.686,47.063
			c-1.242,0.579-2.719,0.042-3.299-1.2c-0.282-0.607-0.297-1.27-0.095-1.856c0.254,0.166,0.521,0.229,0.76,0.178
			c0.056-0.012,0.108-0.031,0.159-0.054c0.156-0.073,0.286-0.199,0.376-0.365c0.177-0.328,0.082-0.621-0.032-0.824
			c0.247,0.334,0.604,0.614,1.081,0.419c0.377-0.155,0.46-0.594,0.412-0.992c0.777,0.131,1.479,0.629,1.839,1.397
			C364.465,45.008,363.928,46.484,362.686,47.063z"/>
	</g>
</g>
</svg>
